<?xml version="1.0" standalone="no"?><!DOCTYPE svg PUBLIC "-//W3C//DTD SVG 1.1//EN" "http://www.w3.org/Graphics/SVG/1.1/DTD/svg11.dtd"><svg class="icon" width="16px" height="16.00px" viewBox="0 0 1024 1024" version="1.1" xmlns="http://www.w3.org/2000/svg"><path d="M597.333333 277.333333h277.333334c35.349333 0 64 28.8 64 64v682.666667H85.333333V64.064A63.978667 63.978667 0 0 1 149.141333 0H533.546667A63.786667 63.786667 0 0 1 597.333333 64.064V277.333333zM256 490.666667h192a42.666667 42.666667 0 1 0 0-85.333334h-192a42.666667 42.666667 0 1 0 0 85.333334z m0 213.333333h192a42.666667 42.666667 0 1 0 0-85.333333h-192a42.666667 42.666667 0 1 0 0 85.333333z m-10.666667-426.666667h192a42.666667 42.666667 0 1 0 0-85.333333h-192a42.666667 42.666667 0 1 0 0 85.333333z" fill="#ffffff" /></svg>